# xmcd
#
# Track frame offsets: 
#        150
#        15595
#        32222
#        49817
#        62732
#        75025
#        84362
#        96477
#        109770
#        123717
#        135185
#        150292
#        168020
#        184200
#        194757
#        209415
#        221415
#        233090
#        245780
#        256362
#
# Disc length: 3590 seconds
#
# Revision: 5
# Processed by: cddbd v1.5.2PL0 Copyright (c) Steve Scherf et al.
# Submitted via: ExactAudioCopy v1.0b1
#
DISCID=0b0e0414
DTITLE=Various Artist - Legends Of Country Music Disc 1
DYEAR=1993
DGENRE=Country
TTITLE0=Exile - Even Now
TTITLE1=Garth Brooks - If Tomorrow Never Comes
TTITLE2=Dan Seals And Marie Osmond - Meet Me In Montana
TTITLE3=Michael Martin Murphey - What's Forever For
TTITLE4=Charlie Rich - The Most Beautiful Girl
TTITLE5=Charley Pride - Kiss An Angel Good Mornin'
TTITLE6=Tammy Wynette - Stand By Your Man
TTITLE7=David Houston - Almost Persuaded
TTITLE8=Lefty Frizzell - Saginaw Michigan
TTITLE9=Kitty Wells - It Wasn't God Who Made Honky Tonk Angels
TTITLE10=Ricky Van Shelton - Somebody Lied
TTITLE11=Eddie Rabbitt With Crystal Gayle - You And I
TTITLE12=Johnny Lee - Lookin' For Love
TTITLE13=Barbara Mandrell - Sleeping Single In A Double Bed
TTITLE14=Glen Campbell - Rhinestone Cowboy
TTITLE15=Eddy Arnold - Make The World Go Away
TTITLE16=George Jones - She Thinks I Still Care
TTITLE17=Patsy Cline - I Fall To Pieces
TTITLE18=Ferlin Husky - Wings Of A Dove
TTITLE19=Hank Williams - Jambalaya (On The Bayou)
EXTD=Legends of Country Music.\n3 Disc Set\n(c) 1993 CEMA Special Mark
EXTD=ets\nProduct of CEMA Special Markets, a division of Capitol Recor
EXTD=ds, Inc. All Rights Reserved.\n
EXTT0=
EXTT1=
EXTT2=
EXTT3=
EXTT4=
EXTT5=
EXTT6=
EXTT7=
EXTT8=
EXTT9=
EXTT10=
EXTT11=
EXTT12=
EXTT13=
EXTT14=
EXTT15=
EXTT16=
EXTT17=
EXTT18=
EXTT19=
PLAYORDER=
